<?xml version="1.0" encoding="UTF-8" standalone="no"?>
<svg
   xmlns:dc="http://purl.org/dc/elements/1.1/"
   xmlns:cc="http://creativecommons.org/ns#"
   xmlns:rdf="http://www.w3.org/1999/02/22-rdf-syntax-ns#"
   xmlns:svg="http://www.w3.org/2000/svg"
   xmlns="http://www.w3.org/2000/svg"
   xmlns:sodipodi="http://sodipodi.sourceforge.net/DTD/sodipodi-0.dtd"
   xmlns:inkscape="http://www.inkscape.org/namespaces/inkscape"
   version="1.1"
   x="0px"
   y="0px"
   width="32px"
   height="32px"
   viewBox="56.487 52.98 32 32"
   enable-background="new 56.487 52.98 32 32"
   xml:space="preserve"
   id="svg2"
   inkscape:version="0.91 r13725"
   sodipodi:docname="github-black.svg"><metadata
     id="metadata12"><rdf:RDF><cc:Work
         rdf:about=""><dc:format>image/svg+xml</dc:format><dc:type
           rdf:resource="http://purl.org/dc/dcmitype/StillImage" /><dc:title></dc:title></cc:Work></rdf:RDF></metadata><defs
     id="defs10" /><sodipodi:namedview
     pagecolor="#ffffff"
     bordercolor="#666666"
     borderopacity="1"
     objecttolerance="10"
     gridtolerance="10"
     guidetolerance="10"
     inkscape:pageopacity="0"
     inkscape:pageshadow="2"
     inkscape:window-width="1366"
     inkscape:window-height="715"
     id="namedview8"
     showgrid="false"
     inkscape:zoom="14.75"
     inkscape:cx="13.62218"
     inkscape:cy="21.270853"
     inkscape:window-x="-8"
     inkscape:window-y="-8"
     inkscape:window-maximized="1"
     inkscape:current-layer="svg2" /><path
     d="M72.487 52.98c-8.837 0-16 7.163-16 16s7.163 16 16 16s16-7.163 16-16S81.323 53 72.5 52.98z M72.487 82.5 c-7.456 0-13.5-6.044-13.5-13.5s6.044-13.5 13.5-13.5s13.5 6 13.5 13.5S79.943 82.5 72.5 82.48z"
     id="path4" /><g
     transform="matrix(0.03744255,0,0,0.03744255,64.273462,60.950353)"
     id="g3"><path
       inkscape:connector-curvature="0"
       id="Github"
       d="M 332.146,1.3 C 293.69,25.338 254.038,5.062 225.457,1.3 99.268,-15.326 59.152,131.895 151.094,190.921 c -23.671,12.258 -22.124,74.668 3.239,83.559 -59.739,6.833 -70.816,91.027 -38.793,125.349 38.965,41.752 158.828,38.989 193.976,0 24.539,-27.237 27.946,-83.372 6.454,-109.266 -19.593,-23.63 -117.904,-27.2 -116.374,-64.284 1.064,-25.921 36.613,-21.835 58.194,-32.143 40.589,-19.408 64.434,-77.478 48.491,-122.135 9.049,-1.701 16.797,-4.721 25.864,-6.422 l 0,-64.279 z m -155.18,134.995 c -47.308,-103.065 108.771,-95.673 61.428,0 -15.532,11.507 -46.092,12.651 -61.428,0 z m 87.284,202.471 c 4.191,46.223 -89.396,48.271 -100.219,16.087 -9.11,-27.116 2.231,-34.803 29.09,-41.789 30.422,-7.92 68.319,-5.213 71.129,25.702 z" /></g></svg>